<svg width="34" height="34" viewBox="0 0 34 34" fill="none" xmlns="http://www.w3.org/2000/svg">
<path d="M20.2038 28.3742H12.3471C12.0418 28.3742 11.7773 28.6462 11.7773 28.9547C11.7773 29.2811 12.0418 29.5349 12.3471 29.5349H20.2038C20.5091 29.5349 20.7737 29.2629 20.7737 28.9365C20.7737 28.6101 20.5292 28.356 20.2038 28.356V28.3742Z" fill="#1F8E9F"/>
<path d="M20.2038 29.9883H12.3471C12.0418 29.9883 11.7773 30.2603 11.7773 30.5867C11.7773 30.9131 12.0418 31.1672 12.3471 31.1672H13.1815L14.0366 32.6904C14.0366 32.6904 14.3419 33.1617 14.6469 33.2344C15.3187 33.4881 17.2727 33.5246 18.0258 33.2344C18.0258 33.2344 18.392 33.1438 18.6769 32.6542C18.9009 32.2734 19.3691 31.5118 19.5724 31.1489H20.2038C20.5091 31.1489 20.7737 30.8949 20.7737 30.5685C20.7737 30.2603 20.5091 29.9883 20.2038 29.9883Z" fill="#1F8E9F"/>
<path d="M20.2038 26.7605H12.3471C12.0418 26.7605 11.7773 27.0325 11.7773 27.3589C11.7773 27.6853 12.0418 27.9393 12.3471 27.9393H20.2038C20.5091 27.9393 20.7737 27.667 20.7737 27.3406C20.7737 27.0142 20.5091 26.7605 20.2038 26.7605Z" fill="#1F8E9F"/>
<path d="M30.8291 21.2294C30.1573 20.9392 29.5058 20.6489 28.8343 20.3407C28.4478 20.1775 27.9184 20.2319 27.6947 20.6127C27.5114 20.9574 27.5726 21.4288 28 21.6283C28.6715 21.9184 29.3229 22.2086 29.9944 22.5168C30.3609 22.7163 30.9308 22.6075 31.1344 22.2448C31.2157 22.1179 31.2565 21.9728 31.2361 21.8278C31.2361 21.5739 31.0936 21.3563 30.8291 21.2294Z" fill="#1F8E9F"/>
<path d="M4.8144 20.6128C4.59068 20.232 4.0613 20.1776 3.67472 20.359C3.00291 20.6491 2.35161 20.9574 1.70034 21.2475C1.43575 21.3744 1.31362 21.592 1.29329 21.8459C1.29329 21.991 1.31362 22.1542 1.39505 22.2811C1.59857 22.6438 2.16845 22.7346 2.5348 22.535C3.20643 22.2448 3.85798 21.9366 4.52948 21.6464C4.95686 21.4651 5.01806 20.9755 4.8144 20.631V20.6128Z" fill="#1F8E9F"/>
<path d="M31.4595 11.89C30.7268 12.017 30.0145 12.162 29.2818 12.2889C29.0782 12.3252 28.9153 12.4341 28.8136 12.5792C28.7524 12.6517 28.7324 12.7243 28.712 12.7968C28.6712 12.9237 28.6712 13.0688 28.712 13.1957C28.712 13.1957 28.712 13.1957 28.712 13.2139C28.7932 13.5765 29.0986 13.7397 29.4039 13.7397C29.5055 13.7397 29.6075 13.7397 29.7296 13.7397C30.4419 13.5947 31.1746 13.4496 31.8872 13.3045C32.9453 13.0869 32.4975 11.6724 31.4595 11.8719V11.89Z" fill="#1F8E9F"/>
<path d="M3.81956 13.1232C3.90082 12.7787 3.71756 12.416 3.22925 12.3252C2.51671 12.1801 1.78401 12.0351 1.07168 11.89C0.644263 11.7994 0.155785 11.9989 0.0540229 12.416C0.0540229 12.416 0.0540229 12.416 0.0540229 12.4342C-0.027373 12.815 0.176152 13.2502 0.644263 13.3408C1.37696 13.4678 2.0893 13.6128 2.8222 13.7398C3.37171 13.8486 3.75836 13.4859 3.83996 13.1051L3.81956 13.1232Z" fill="#1F8E9F"/>
<path d="M26.7169 4.14655C26.3911 3.9108 25.8417 3.82012 25.5364 4.14655C25.0682 4.65432 24.6208 5.18021 24.1522 5.68798C23.8673 5.99627 23.8065 6.4315 24.1522 6.73979C24.1522 6.73979 24.193 6.77605 24.2134 6.79419C24.5188 7.01182 25.0682 7.02993 25.3331 6.73979C25.8009 6.23201 26.2691 5.70613 26.7373 5.19835C27.0018 4.90821 27.1038 4.41858 26.7373 4.14655H26.7169Z" fill="#1F8E9F"/>
<path d="M8.33748 5.68798C7.8693 5.18021 7.42152 4.65429 6.95334 4.14655C6.64802 3.80197 6.09858 3.92895 5.77286 4.14655C5.38628 4.41858 5.52874 4.90818 5.77286 5.19835C6.24104 5.7061 6.70922 6.21387 7.17706 6.73979C7.31986 6.90299 7.58438 6.97553 7.80844 6.95739C8.01176 6.95739 8.21542 6.86673 8.33748 6.73979C8.47994 6.61285 8.54114 6.46776 8.56154 6.3227C8.5816 6.10507 8.50034 5.86933 8.33748 5.68798Z" fill="#1F8E9F"/>
<path d="M16.2534 0.827956C15.8056 0.827956 15.419 1.15436 15.419 1.57144C15.419 2.2243 15.419 2.89528 15.419 3.54815C15.419 3.94709 15.7852 4.29167 16.2534 4.29167C16.4978 4.29167 16.6807 4.21912 16.8028 4.11032C16.9657 3.98338 17.0881 3.80203 17.0881 3.56626C17.0881 2.91342 17.0881 2.24245 17.0881 1.58959C17.0881 1.19064 16.7215 0.846068 16.2738 0.846068L16.2534 0.827956Z" fill="#1F8E9F"/>
<path d="M18.9628 16.5869C19.0441 16.4418 19.0645 16.333 19.0036 16.2605C18.9628 16.1879 18.9016 16.1517 18.8608 16.1517C18.7388 16.1517 18.5759 16.2967 18.5147 16.4237C18.3926 16.6231 18.413 16.877 18.4538 17.0765C18.698 16.9133 18.8812 16.7501 18.9832 16.5687L18.9628 16.5869Z" fill="#1F8E9F"/>
<path d="M15.5829 16.3149C15.6437 16.2061 15.6641 16.0066 15.5829 15.9341C15.5829 15.9341 15.5625 15.916 15.5217 15.916C15.5013 15.916 15.4608 15.916 15.3996 15.9522C15.2572 16.0066 15.1351 16.1154 15.0535 16.2786C14.911 16.5506 14.891 16.8226 14.9926 17.0402C14.9926 17.0221 15.0334 17.004 15.0535 16.9677C15.2368 16.7682 15.4404 16.5506 15.5625 16.333L15.5829 16.3149Z" fill="#1F8E9F"/>
<path d="M13.0781 19.434C14.1365 21.4832 15.0729 23.7501 15.9072 26.3797H17.1081C17.8816 23.8951 18.7364 21.7552 19.7135 19.7967C18.94 19.4703 18.3294 18.8719 17.9833 18.074C17.4338 18.2735 16.8841 18.346 16.3142 18.2916C15.826 18.2553 15.3983 18.1465 15.0729 17.9833C14.7468 18.3097 14.0141 19.0351 13.0985 19.434H13.0781Z" fill="#1F8E9F"/>
<path d="M11.29 18.1465C11.29 18.1465 11.2492 18.1465 11.2292 18.1465C11.1272 18.1465 11.0051 18.1828 10.9847 18.2553C10.9443 18.4004 11.0255 18.5455 11.1068 18.6361C11.29 18.8537 11.6566 19.0169 11.9415 19.0169C11.9619 19.0169 11.9823 19.0169 12.0027 19.0169C11.9415 18.9081 11.8806 18.7812 11.799 18.6724C11.6566 18.4367 11.4937 18.1828 11.2492 18.1465H11.29Z" fill="#1F8E9F"/>
<path d="M21.4261 18.346C21.4261 18.346 21.3245 18.3823 21.1412 18.6361C21.0191 18.8537 20.9175 19.0713 20.7954 19.2889C21.0599 19.2708 21.2636 19.1801 21.4061 19.0532C21.5281 18.9444 21.5686 18.7993 21.5485 18.618C21.5485 18.4185 21.4669 18.346 21.4465 18.3279L21.4261 18.346Z" fill="#1F8E9F"/>
<path d="M16.234 5.97813C10.3924 5.97813 5.64978 10.2216 5.64978 15.4261C5.64978 19.2345 8.1736 22.4987 11.817 23.9858V25.8174C11.817 26.1256 12.102 26.3797 12.4481 26.3797H15.094C14.28 23.8226 13.3844 21.6102 12.3461 19.6335C11.7558 19.7423 11.2268 19.6153 10.779 19.2527C10.4737 19.0169 10.1888 18.5999 10.2296 18.2009C10.25 17.965 10.3924 17.7655 10.6366 17.6205C10.8198 17.5117 11.0027 17.4754 11.186 17.4754C11.7762 17.4754 12.2444 17.9469 12.4681 18.346C12.5497 18.4911 12.631 18.6543 12.7126 18.7993C13.3232 18.5455 13.9339 18.0921 14.4425 17.5479C14.3001 17.3666 14.1984 17.149 14.178 16.9314C14.1171 16.5325 14.3409 15.9341 14.687 15.5895C15.0532 15.2085 15.5417 15.136 15.9695 15.408C16.2136 15.5533 16.3356 15.7527 16.3764 15.9703C16.4577 16.4781 15.9491 17.0221 15.5825 17.421C15.5825 17.421 15.5417 17.4573 15.5417 17.4754C15.6434 17.5117 15.7658 17.5479 15.8675 17.5661C16.4985 17.6749 17.0683 17.6749 17.4957 17.5298C17.5773 17.5117 17.6586 17.4754 17.7198 17.4391C17.679 17.2941 17.6586 17.1671 17.6586 17.0221C17.5974 16.4418 17.7806 16.0066 18.2284 15.6802C18.4117 15.5533 18.6354 15.4807 18.8595 15.4807C19.0835 15.4807 19.2668 15.5533 19.4092 15.6802C19.6534 15.9159 19.7754 16.1698 19.7346 16.4599C19.6738 17.0221 19.0835 17.4573 18.8394 17.6205C18.7578 17.6749 18.6969 17.7111 18.615 17.7474C18.7986 18.2191 19.2056 18.9263 19.9791 19.1983C20.1419 18.9081 20.2844 18.618 20.4473 18.346C20.4473 18.3279 20.4673 18.3097 20.4877 18.2916C20.6302 18.1103 20.9967 17.6749 21.4241 17.6749C21.5869 17.6749 21.7498 17.7293 21.8719 17.8381C22.2992 18.1647 22.3196 18.7449 22.1367 19.162C21.9127 19.6697 21.3629 19.978 20.6098 19.9961C20.5285 19.9961 20.4473 19.9961 20.3861 19.9961C19.4293 21.8822 18.5949 23.9858 17.8214 26.3976H20.0399C20.3861 26.3976 20.671 26.1438 20.671 25.8354V24.004C24.294 22.4987 26.8178 19.2345 26.7974 15.4261C26.7974 10.2216 22.0347 5.99624 16.1932 5.99624L16.234 5.97813Z" fill="#1F8E9F"/>
</svg>
