<svg width="38" height="34" viewBox="0 0 38 34" fill="none" xmlns="http://www.w3.org/2000/svg">
<path fill-rule="evenodd" clip-rule="evenodd" d="M21.9803 9.0507C23.0167 8.45797 24.1735 8.25935 25.2676 8.25935C26.2741 8.25935 27.2726 8.44118 28.2162 8.79631L28.5146 8.90862C28.9581 9.0755 29.386 9.28198 29.7934 9.52561C31.2783 10.4136 32.44 11.7647 33.105 13.3772L33.3496 13.9702C34.3591 16.4177 34.1861 19.2023 32.8819 21.5022C31.3827 24.146 28.6038 25.7759 25.5955 25.7759H25.2845C25.21 25.7759 25.1659 25.7759 25.123 25.7754C22.9709 25.7519 20.9204 24.8444 19.4404 23.2606C19.411 23.2291 19.3811 23.1965 19.3309 23.1415L13.4352 16.6946C13.1125 16.3417 13.1331 15.7903 13.4813 15.4631C13.8295 15.1359 14.3734 15.1568 14.6961 15.5098L20.5876 21.9521C20.6429 22.0126 20.6663 22.0381 20.6886 22.062C21.8484 23.3031 23.4552 24.0142 25.1415 24.0327C25.174 24.033 25.2083 24.033 25.2897 24.033H25.5955C27.9884 24.033 30.1988 22.7366 31.3913 20.6336C32.4287 18.8042 32.5663 16.5893 31.7633 14.6424L31.5188 14.0494C30.9969 12.784 30.0852 11.7236 28.9198 11.0267C28.6001 10.8355 28.2642 10.6735 27.9162 10.5425L27.6178 10.4302C26.8657 10.1471 26.0698 10.0022 25.2676 10.0022C24.3662 10.0022 23.5266 10.1674 22.8251 10.5686C22.2862 10.8768 21.7397 11.2455 21.3685 11.6219L20.1527 10.3895C20.6883 9.84656 21.3939 9.38603 21.9803 9.0507Z" fill="#E8E1E1"/>
<path fill-rule="evenodd" clip-rule="evenodd" d="M13.3439 9.87561C12.4312 9.79363 11.5117 9.90883 10.6462 10.2136L10.2804 10.3424C8.52586 10.9602 7.09829 12.2809 6.33138 13.9958C5.59203 15.649 5.53145 17.5456 6.10095 19.3009C6.11975 19.3589 6.13849 19.4168 6.15717 19.4746C7.19319 22.6817 10.3394 24.5982 13.6443 24.0687C14.9394 23.8612 16.1403 23.332 17.0443 22.4664L18.2248 23.7335C17.0219 24.8852 15.4802 25.5391 13.9127 25.7902C9.79079 26.4506 5.82712 24.0533 4.52323 20.017C4.50476 19.9598 4.48625 19.9026 4.46769 19.8454C3.77377 17.7066 3.83508 15.3565 4.76545 13.2762C5.7269 11.1263 7.5166 9.47059 9.71627 8.69604L10.082 8.56726C11.1772 8.1816 12.3407 8.03582 13.4956 8.13956C15.3386 8.3051 17.0722 9.09773 18.4145 10.3886L19.6237 11.5515L25.6052 17.9591C25.9315 18.3086 25.9165 18.8602 25.5716 19.191C25.2268 19.5218 24.6827 19.5065 24.3564 19.157L18.4068 12.7836L17.2311 11.653C16.1704 10.6328 14.8004 10.0064 13.3439 9.87561Z" fill="#E8E1E1"/>
<path fill-rule="evenodd" clip-rule="evenodd" d="M26.5214 13.3778C25.4914 13.0179 24.4135 13.1578 23.5683 13.9393C23.5406 13.9648 23.5138 13.99 23.488 14.0149L22.3055 12.7497C22.3397 12.7169 22.3744 12.6841 22.4097 12.6515C23.7866 11.3786 25.5476 11.194 27.0818 11.7302C28.5989 12.2604 29.9326 13.5002 30.5874 15.1491L30.6194 15.2294C30.848 15.8052 30.979 16.416 31.0067 17.036C31.2358 22.154 25.049 24.7864 21.6058 21.036L15.5163 14.4032C13.2576 11.9431 9.19428 13.5632 9.19428 16.9239C9.19428 17.5258 9.33914 18.1187 9.61629 18.651L9.77072 18.9476C10.2011 19.7742 10.9007 20.4242 11.7506 20.7869C12.7617 21.2185 13.7714 21.172 14.4655 20.6171C14.6361 20.4807 14.8143 20.3285 14.9963 20.1597L16.1569 21.4455C15.9423 21.6445 15.7321 21.8241 15.5303 21.9855C14.1887 23.0582 12.4617 22.9815 11.0834 22.3932C9.86726 21.8741 8.86608 20.944 8.25018 19.7611L8.09575 19.4644C7.68805 18.6814 7.47496 17.8094 7.47496 16.9239C7.47496 11.9801 13.4523 9.59685 16.7749 13.2159L22.8644 19.8487C25.2176 22.4118 29.4457 20.6127 29.2892 17.115C29.2702 16.6912 29.1807 16.2738 29.0244 15.8803L28.9925 15.7999C28.5241 14.6207 27.5685 13.7438 26.5214 13.3778Z" fill="#E8E1E1"/>
<path fill-rule="evenodd" clip-rule="evenodd" d="M20.5536 5.90774C19.4808 5.66846 18.3756 5.68843 17.3214 5.97529C16.4044 6.22482 15.3479 6.58 14.5383 7.03403C14.1332 7.26123 13.8328 7.48979 13.6425 7.70634C13.4578 7.91657 13.4144 8.06979 13.4144 8.18013H11.6951C11.6951 7.52104 11.9848 6.97263 12.3585 6.54725C12.7267 6.12821 13.21 5.78718 13.7059 5.50902C14.6985 4.95235 15.9139 4.55373 16.8756 4.29203C18.2029 3.93089 19.5878 3.90779 20.9231 4.2056C22.0132 4.44872 23.4407 4.84186 24.6057 5.4318C25.1871 5.7262 25.7536 6.09441 26.1793 6.5592C26.6143 7.03421 26.9367 7.65249 26.9078 8.39913L25.1898 8.33083C25.1959 8.17312 25.1393 7.98528 24.9192 7.74493C24.6897 7.49434 24.3251 7.23791 23.8374 6.99093C22.8641 6.49808 21.6014 6.14142 20.5536 5.90774Z" fill="#E8E1E1"/>
<path fill-rule="evenodd" clip-rule="evenodd" d="M20.5793 28.0922C19.5064 28.3316 18.4011 28.3116 17.3468 28.0247C16.4299 27.7751 15.3735 27.42 14.5641 26.9659C14.1591 26.7388 13.8587 26.5102 13.6685 26.2937C13.4839 26.0835 13.4405 25.9303 13.4405 25.8199H11.7212C11.7212 26.4789 12.0108 27.0273 12.3845 27.4527C12.7526 27.8717 13.2358 28.2127 13.7317 28.4909C14.7241 29.0476 15.9393 29.4462 16.901 29.7079C18.2283 30.0691 19.6134 30.0922 20.9488 29.7944C22.0388 29.5512 23.4662 29.1581 24.631 28.5681C25.2123 28.2737 25.7788 27.9055 26.2043 27.4407C26.6393 26.9657 26.9617 26.3475 26.9328 25.6009L25.2148 25.6692C25.2209 25.8269 25.1642 26.0148 24.9442 26.2551C24.7147 26.5057 24.3502 26.7621 23.8626 27.009C22.8895 27.5019 21.627 27.8585 20.5793 28.0922Z" fill="#E8E1E1"/>
</svg>
