<svg width="33" height="32" viewBox="0 0 33 32" fill="none" xmlns="http://www.w3.org/2000/svg">
<g clip-path="url(#clip0_6_2)">
<path d="M26.7722 0H5.22939C2.34155 0 0.000488281 2.31047 0.000488281 5.16058V26.4219C0.000488281 29.272 2.34155 31.5825 5.22939 31.5825H26.7722C29.6601 31.5825 32.0011 29.272 32.0011 26.4219V5.16058C32.0011 2.31047 29.6601 0 26.7722 0Z" fill="url(#paint0_linear_6_2)"/>
<path d="M15.9603 4.15918C12.6148 4.15918 9.59568 5.53507 7.4502 7.74442C7.18988 8.01224 6.84267 8.43782 6.76203 8.75538C6.54922 9.58489 7.63436 10.073 8.24382 9.35008C8.24766 9.34534 8.31214 9.26449 8.31534 9.26149C10.1691 7.14862 12.9066 5.81284 15.9603 5.81284C21.539 5.81284 26.1344 10.403 26.0704 15.9085C26.0067 21.3655 21.5049 25.7698 15.9605 25.7698C13.0385 25.7698 10.4069 24.5468 8.5611 22.5913C8.50062 22.5274 8.24638 22.2564 8.06669 22.1238C7.19948 21.4842 6.17178 22.4958 7.09419 23.4515C7.10971 23.4676 7.12235 23.4864 7.13756 23.5033C9.35072 25.9677 12.6068 27.4985 16.2237 27.4206C22.7228 27.2807 27.8498 22.0148 27.745 15.6001C27.6415 9.26401 22.4047 4.15918 15.9603 4.15918Z" fill="white"/>
<path d="M14.3499 9.82007C13.6005 9.82007 13.0494 10.3006 12.6259 10.8519C12.4359 11.0992 12.1518 11.0549 12.1518 11.0549H5.28989L4.74731 12.4738C4.74731 12.4738 11.6345 12.4817 12.0732 12.4738C12.3551 12.4687 12.5921 12.6224 12.7004 12.7558C13.1054 13.2555 13.6541 13.6589 14.3494 13.6589C15.4235 13.6589 16.2943 12.7996 16.2943 11.7395C16.2943 10.6794 15.424 9.82007 14.3499 9.82007Z" fill="white"/>
<path d="M14.3499 17.9247C13.6005 17.9247 13.0494 18.4052 12.6259 18.9563C12.4359 19.2036 12.1518 19.1596 12.1518 19.1596H4.74731L5.28989 20.5782C5.28989 20.5782 11.6343 20.5863 12.074 20.5782C12.3559 20.5732 12.5929 20.7268 12.7012 20.8603C13.1062 21.3599 13.6549 21.7634 14.3502 21.7634C15.4243 21.7725 16.3024 20.9206 16.3117 19.8605C16.321 18.8005 15.4578 17.9338 14.3837 17.9247C14.3725 17.9247 14.361 17.9247 14.3499 17.9247Z" fill="white"/>
<path d="M20.3793 13.8725C19.6298 13.8725 19.0788 14.3531 18.6553 14.9043C18.4652 15.1515 18.1812 15.1074 18.1812 15.1074H4.25513V16.5278H12.6015C14.675 16.5296 17.8114 16.5313 18.1029 16.5261C18.3849 16.5209 18.622 16.6747 18.7301 16.8081C19.1351 17.3078 19.6839 17.7111 20.3791 17.7111C21.4532 17.7202 22.3313 16.8683 22.3406 15.8082C22.3499 14.7482 21.4867 13.8815 20.4126 13.8724C20.4014 13.8724 20.3904 13.8725 20.3793 13.8725Z" fill="white"/>
</g>
<defs>
<linearGradient id="paint0_linear_6_2" x1="0.000488281" y1="15.7912" x2="32.0011" y2="15.7912" gradientUnits="userSpaceOnUse">
<stop stop-color="#E064D7"/>
<stop offset="1" stop-color="#911AFF"/>
</linearGradient>
<clipPath id="clip0_6_2">
<rect width="33" height="32" fill="white"/>
</clipPath>
</defs>
</svg>
