<svg width="553" height="684" viewBox="0 0 553 684" fill="none" xmlns="http://www.w3.org/2000/svg">
<path d="M62 662.8L81.2669 568.8H480.733L500 662.8H62Z" fill="#FFB300"/>
<path d="M62 527L81.2669 433H480.733L500 527H62Z" fill="#FFB300"/>
<path d="M62 391L81.2669 297H480.733L500 391H62Z" fill="#FFB300"/>
<path d="M81 255L97.7155 161H444.284L461 255H81Z" fill="#FFB300"/>
<path d="M102 120L117.22 26H432.78L448 120H102Z" fill="#FFB300"/>
<path d="M552.7 663.302L466.958 21.299C465.757 9.77727 457.153 0.801025 448.549 0.801025H414.232C405.627 0.801025 400.125 9.77727 401.326 21.299L472.06 552.639L86.67 562.821L137.595 131.961L152.302 21.299C153.503 9.77727 148 0.801025 139.396 0.801025H105.079C96.4748 0.801025 88.5709 9.77727 86.67 21.299L1.02773 663.302C-0.172865 674.823 5.32985 683.801 13.9341 683.801H48.251C56.8553 683.801 64.7592 674.823 66.6601 663.302L86.67 562.821L472.06 552.639L486.768 663.302C487.968 674.823 495.972 683.801 504.476 683.801H539.394C548.398 683.801 553.901 674.822 552.7 663.302Z" fill="#FFB300"/>
</svg>
