<svg width="34" height="34" viewBox="0 0 34 34" fill="none" xmlns="http://www.w3.org/2000/svg">
    <path d="M3.74084 29.6977L4.93191 28.2529H29.6267L30.8177 29.6977H3.74084Z" fill="#FFB300"/>
    <path d="M3.74084 22.9555L4.93191 21.5107H29.6267L30.8177 22.9555H3.74084Z" fill="#FFB300"/>
    <path d="M3.74084 16.2133L4.93191 14.7686H29.6267L30.8177 16.2133H3.74084Z" fill="#FFB300"/>
    <path d="M4.98779 9.47118L6.0143 8.02643H27.2973L28.3238 9.47118H4.98779Z" fill="#FFB300"/>
    <path d="M6.23486 2.72899L7.17518 1.28424H26.6711L27.6114 2.72899H6.23486Z" fill="#FFB300"/>
    <path d="M33.9899 32.9795L28.7087 1.0204C28.6347 0.446841 28.1048 0 27.5748 0H25.4611C24.9311 0 24.5922 0.446841 24.6662 1.0204L29.023 27.4707L5.28517 27.9776L8.42186 6.52921L9.32774 1.0204C9.40169 0.446841 9.06276 0 8.53278 0H6.41906C5.88909 0 5.40225 0.446841 5.28517 1.0204L0.0100989 32.9795C-0.0638507 33.5531 0.275085 34 0.805057 34H2.91878C3.44875 34 3.93559 33.5531 4.05267 32.9795L5.28517 27.9776L29.023 27.4707L29.9289 32.9795C30.0028 33.5531 30.4958 34 31.0196 34H33.1703C33.7249 34 34.0639 33.553 33.9899 32.9795Z" fill="#FFB300"/>
</svg>
